<?xml version="1.0" encoding="utf-8"?>
<!-- Generator: Adobe Illustrator 21.0.0, SVG Export Plug-In . SVG Version: 6.00 Build 0)  -->
<svg version="1.1" id="Layer_1" xmlns="http://www.w3.org/2000/svg" xmlns:xlink="http://www.w3.org/1999/xlink" x="0px" y="0px"
	 viewBox="0 0 427.9 109.8" style="enable-background:new 0 0 427.9 109.8;" xml:space="preserve">
<style type="text/css">
	.st0{clip-path:url(#SVGID_2_);}
	.st1{fill:#F8B230;}
	.st2{fill:#231F20;}
</style>
<title>Artboard 1</title>
<g>
	<defs>
		<rect id="SVGID_1_" width="427.9" height="109.8"/>
	</defs>
	<clipPath id="SVGID_2_">
		<use xlink:href="#SVGID_1_"  style="overflow:visible;"/>
	</clipPath>
	<g class="st0">
		<path class="st1" d="M93.2,20.2c-20.7-19.6-53.4-18.6-73,2.1c-18.8,19.9-18.8,51,0,70.9c20.2,20.1,65.7,7.3,73,0
			C113.3,73,113.3,40.3,93.2,20.2"/>
	</g>
</g>
<path class="st2" d="M131.9,40.6c1.2,0,2.5,0.1,3.7,0.4c1.1,0.2,2.1,0.7,2.9,1.4c0.8,0.7,1.5,1.5,1.9,2.5c0.5,1.2,0.7,2.6,0.7,3.9
	c0,1.6-0.4,3.2-1.2,4.5c-0.9,1.3-2.2,2.2-3.7,2.6V56c1.7,0.2,3.2,1,4.3,2.3c1.1,1.5,1.7,3.4,1.6,5.2c0,1.2-0.2,2.4-0.5,3.6
	c-0.3,1.1-0.9,2.1-1.7,3c-0.9,0.9-2,1.6-3.1,2.1c-1.5,0.5-3.1,0.8-4.7,0.7h-11V40.6H131.9z M129.3,53.9c1.4,0.1,2.8-0.2,4-1
	c0.9-0.8,1.4-2.1,1.2-3.3c0.1-1.2-0.3-2.4-1.1-3.3c-1-0.7-2.3-1.1-3.6-1h-2.4v8.5L129.3,53.9z M130,68.2c1.3,0.1,2.7-0.3,3.8-1
	c1-0.7,1.5-2,1.5-3.9c0-0.8-0.1-1.6-0.4-2.3c-0.2-0.6-0.6-1.1-1-1.5c-0.5-0.4-1-0.7-1.6-0.8c-0.7-0.2-1.3-0.2-2-0.2h-2.8v9.8
	L130,68.2z"/>
<path class="st2" d="M143.9,55.3c0.3-1.4,0.8-2.8,1.6-4c0.8-1.1,1.8-1.9,3-2.5c1.4-0.6,3-0.9,4.5-0.8c1.6-0.1,3.2,0.2,4.7,0.8
	c1.2,0.5,2.3,1.3,3,2.4c0.8,1.2,1.3,2.6,1.5,4c0.3,1.9,0.5,3.8,0.5,5.6c0,1.9-0.1,3.7-0.5,5.5c-0.3,1.4-0.8,2.8-1.6,4
	c-0.7,1.1-1.8,1.9-3,2.4c-1.4,0.6-3,0.8-4.5,0.8c-1.6,0.1-3.2-0.2-4.7-0.7c-1.2-0.5-2.3-1.3-3-2.4c-0.8-1.2-1.3-2.6-1.5-4
	c-0.3-1.9-0.5-3.7-0.5-5.6C143.3,58.9,143.5,57.1,143.9,55.3z M149.7,64.3c0,0.9,0.2,1.8,0.4,2.7c0.2,0.7,0.5,1.3,1,1.8
	c0.5,0.4,1.2,0.7,1.8,0.6c1.2,0,2.3-0.8,2.6-2c1-4.3,1-8.8,0-13.2c-0.3-1.2-1.4-2-2.6-2c-0.7,0-1.3,0.2-1.8,0.6
	c-0.5,0.5-0.8,1.1-1,1.8c-0.2,0.9-0.4,1.8-0.4,2.7c-0.1,1.1-0.1,2.2-0.1,3.5C149.6,62.1,149.7,63.2,149.7,64.3L149.7,64.3z"/>
<path class="st2" d="M170.9,48.6v2.9h0.1c0.6-1.1,1.5-2.1,2.6-2.7c1.1-0.6,2.4-0.9,3.6-0.8c1.7-0.1,3.4,0.5,4.6,1.6
	c1.1,1.1,1.6,2.9,1.6,5.3V73h-6.3V56.2c0.1-0.9-0.1-1.9-0.6-2.7c-0.5-0.5-1.3-0.8-2-0.8c-2.2,0-3.3,1.3-3.3,4V73h-6.3V48.6H170.9z"
	/>
<path class="st2" d="M184.9,52.9v-4.3h3.1v-2.8c0-0.9,0.1-1.9,0.5-2.8c0.3-0.7,0.7-1.3,1.3-1.8c0.6-0.5,1.3-0.8,2.1-1
	c0.9-0.2,1.8-0.3,2.7-0.3c1.1,0,2.2,0,3.4,0.1v4.5c-0.2,0-0.4,0-0.6,0h-0.6c-0.7-0.1-1.3,0.1-1.9,0.5c-0.4,0.4-0.6,0.9-0.5,1.5v2.1
	h3.6v4.3h-3.6V73H188V52.9H184.9z"/>
<path class="st2" d="M206.6,40.2v5.4h-6.3v-5.4H206.6z M206.6,48.6V73h-6.3V48.6L206.6,48.6z"/>
<path class="st2" d="M216.1,48.6v3.3h0.1c0.6-1.1,1.4-2.1,2.3-2.8c1-0.7,2.1-1.1,3.3-1.1h0.6L223,48v6l-1-0.1h-1
	c-0.6,0-1.1,0.1-1.6,0.2c-0.5,0.2-1.1,0.4-1.5,0.8c-0.5,0.4-0.8,0.8-1.1,1.4c-0.3,0.6-0.4,1.4-0.4,2.1V73h-6.3V48.6H216.1z"/>
<path class="st2" d="M229.7,63.7c0,0.7,0.1,1.4,0.2,2.1c0.1,0.6,0.3,1.2,0.5,1.8c0.2,0.5,0.6,0.9,1,1.3c0.4,0.3,0.9,0.5,1.5,0.5
	c0.9,0.1,1.8-0.4,2.3-1.1c0.6-1.1,0.9-2.2,1-3.5h5.6c0.1,2.4-0.8,4.7-2.3,6.5c-1.4,1.5-3.6,2.2-6.6,2.2c-1.8,0.1-3.7-0.3-5.3-1.1
	c-1.2-0.7-2.2-1.7-2.8-3c-0.6-1.3-1-2.7-1.1-4.2c-0.1-1.5-0.2-3.1-0.2-4.6c0-1.6,0.1-3.2,0.3-4.7c0.2-1.4,0.7-2.8,1.4-4
	c0.7-1.2,1.7-2.2,2.9-2.8c1.6-0.7,3.3-1.1,5.1-1c1.5-0.1,3.1,0.2,4.5,0.9c1.1,0.6,2.1,1.4,2.8,2.5c0.7,1.2,1.2,2.5,1.4,3.9
	c0.3,1.7,0.4,3.4,0.4,5.1v1.4h-12.5V63.7z M235.9,55.5c-0.1-0.6-0.2-1.2-0.5-1.8c-0.2-0.5-0.6-0.9-1-1.1c-0.5-0.3-1-0.4-1.6-0.4
	c-0.6,0-1.1,0.1-1.6,0.4c-0.4,0.3-0.8,0.7-1,1.1c-0.3,0.5-0.4,1-0.5,1.6c-0.1,0.6-0.2,1.1-0.2,1.7v1h6.4
	C236.1,57.1,236,56.3,235.9,55.5z"/>
<path class="st2" d="M261.8,63.8c0,0.7,0.1,1.4,0.2,2.1c0.1,0.6,0.3,1.1,0.7,1.6c0.4,0.4,0.8,0.8,1.3,1c0.7,0.3,1.4,0.4,2.1,0.4
	c1,0,2-0.4,2.7-1c0.8-0.8,1.3-1.9,1.2-3c0-0.6-0.1-1.3-0.3-1.9c-0.2-0.5-0.6-1-1-1.4c-0.5-0.5-1.1-0.9-1.8-1.2
	c-0.9-0.4-1.8-0.8-2.8-1.1c-1.3-0.4-2.6-1-3.8-1.6c-1-0.5-1.9-1.2-2.7-2c-0.7-0.8-1.2-1.7-1.6-2.7c-0.4-1.1-0.5-2.3-0.5-3.5
	c0-3.2,0.9-5.6,2.7-7.2c2.1-1.7,4.7-2.5,7.4-2.4c1.3,0,2.7,0.2,4,0.5c1.2,0.3,2.2,0.8,3.2,1.5c0.9,0.7,1.6,1.7,2.1,2.7
	c0.5,1.3,0.8,2.6,0.8,4v0.9h-6.3c0.1-1.2-0.2-2.5-0.8-3.6c-0.6-0.9-1.7-1.4-2.7-1.2c-0.6,0-1.2,0.1-1.8,0.3
	c-0.4,0.2-0.8,0.5-1.2,0.8c-0.3,0.3-0.5,0.8-0.6,1.2c-0.1,0.5-0.2,0.9-0.2,1.4c0,0.9,0.2,1.8,0.6,2.5c0.7,0.9,1.7,1.5,2.7,1.9l5,2.2
	c1.1,0.5,2.1,1,3,1.7c0.7,0.5,1.4,1.2,1.9,1.9c0.5,0.7,0.8,1.4,1,2.2c0.2,0.9,0.3,1.8,0.3,2.7c0,3.4-1,5.9-3,7.5s-4.8,2.3-8.3,2.3
	c-3.7,0-6.3-0.8-7.9-2.4s-2.4-3.9-2.4-6.9v-1.3h6.5L261.8,63.8z"/>
<path class="st2" d="M291.1,55.6c-0.1-0.5-0.2-1.1-0.4-1.6c-0.2-0.4-0.5-0.8-0.8-1.1c-0.4-0.3-0.9-0.5-1.5-0.4
	c-1.4-0.1-2.6,0.7-3,2.1c-0.3,0.8-0.4,1.7-0.5,2.6c-0.1,1-0.1,2.3-0.1,3.7c0,1.4,0,2.7,0.1,3.9c0.1,0.9,0.2,1.8,0.5,2.7
	c0.2,0.6,0.5,1.1,1,1.5c0.5,0.3,1.1,0.5,1.7,0.5c1,0.1,1.9-0.5,2.3-1.4c0.6-1.4,0.8-2.9,0.7-4.4h6c0,3.2-0.7,5.7-2.2,7.3
	s-3.8,2.5-7.2,2.5c-1.4,0-2.8-0.2-4.1-0.6c-1.1-0.4-2.2-1.1-2.9-2c-0.9-1.2-1.5-2.6-1.8-4c-0.4-2-0.6-4.1-0.6-6.2
	c0-2.1,0.2-4.2,0.7-6.2c0.4-1.5,1-2.8,2-4c0.8-1,1.9-1.7,3.1-2.1c1.3-0.4,2.6-0.6,4-0.6c2.9,0,5.1,0.8,6.6,2.5
	c1.6,2,2.3,4.4,2.2,6.9h-6C291.1,56.8,291.1,56.2,291.1,55.6z"/>
<path class="st2" d="M305.8,40.6v10.5h0.1c1.2-2.1,3.6-3.3,6-3.1c1.7-0.1,3.4,0.5,4.6,1.6c1.1,1.1,1.6,2.9,1.6,5.3V73h-6.3V56.2
	c0.1-0.9-0.1-1.9-0.6-2.7c-0.5-0.5-1.3-0.8-2-0.8c-2.2,0-3.3,1.3-3.3,4V73h-6.3V40.6H305.8z"/>
<path class="st2" d="M321.1,55.3c0.3-1.4,0.8-2.8,1.6-4c0.8-1.1,1.8-1.9,3-2.5c1.4-0.6,3-0.9,4.5-0.8c1.6-0.1,3.2,0.2,4.7,0.8
	c1.2,0.5,2.3,1.3,3,2.4c0.8,1.2,1.3,2.6,1.5,4c0.3,1.9,0.5,3.8,0.5,5.6c0,1.9-0.1,3.7-0.5,5.5c-0.3,1.4-0.8,2.8-1.6,4
	c-0.7,1.1-1.8,1.9-3,2.4c-1.4,0.6-3,0.8-4.5,0.8c-1.6,0.1-3.2-0.2-4.7-0.7c-1.2-0.5-2.3-1.3-3-2.4c-0.8-1.2-1.3-2.6-1.5-4
	c-0.3-1.9-0.5-3.7-0.5-5.6C320.5,58.9,320.7,57.1,321.1,55.3z M326.9,64.3c0,0.9,0.2,1.8,0.4,2.7c0.2,0.7,0.5,1.3,1,1.8
	c0.5,0.4,1.2,0.7,1.8,0.6c1.2,0,2.3-0.8,2.6-2c1-4.3,1-8.8,0-13.2c-0.3-1.2-1.4-2-2.6-2c-0.7,0-1.3,0.2-1.8,0.6
	c-0.5,0.5-0.8,1.1-1,1.8c-0.2,0.9-0.4,1.8-0.4,2.7c-0.1,1.1-0.1,2.2-0.1,3.5C326.8,62.1,326.9,63.2,326.9,64.3L326.9,64.3z"/>
<path class="st2" d="M342,55.3c0.3-1.4,0.8-2.8,1.6-4c0.8-1.1,1.8-1.9,3-2.5c1.4-0.6,3-0.9,4.5-0.8c1.6-0.1,3.2,0.2,4.7,0.8
	c1.2,0.5,2.3,1.3,3,2.4c0.8,1.2,1.3,2.6,1.5,4c0.3,1.9,0.5,3.8,0.5,5.6c0,1.9-0.1,3.7-0.5,5.5c-0.3,1.4-0.8,2.8-1.6,4
	c-0.7,1.1-1.8,1.9-3,2.4c-1.4,0.6-3,0.8-4.5,0.8c-1.6,0.1-3.2-0.2-4.7-0.7c-1.2-0.5-2.3-1.3-3-2.4c-0.8-1.2-1.3-2.6-1.5-4
	c-0.3-1.9-0.5-3.7-0.5-5.6C341.5,58.9,341.6,57.1,342,55.3z M347.9,64.3c0,0.9,0.2,1.8,0.4,2.7c0.2,0.7,0.5,1.3,1,1.8
	c0.5,0.4,1.2,0.7,1.8,0.6c1.2,0,2.3-0.8,2.6-2c1-4.3,1-8.8,0-13.2c-0.3-1.2-1.4-2-2.6-2c-0.7,0-1.3,0.2-1.8,0.6
	c-0.5,0.5-0.8,1.1-1,1.8c-0.2,0.9-0.4,1.8-0.4,2.7c-0.1,1.1-0.1,2.2-0.1,3.5C347.8,62.1,347.8,63.2,347.9,64.3L347.9,64.3z"/>
<path class="st2" d="M369.7,40.6V73h-6.3V40.6H369.7z"/>
</svg>
