<?xml version="1.0" encoding="utf-8"?>
<!-- Generator: Adobe Illustrator 21.0.1, SVG Export Plug-In . SVG Version: 6.00 Build 0)  -->
<svg version="1.1"
	 id="Layer_1" xmlns:cc="http://creativecommons.org/ns#" xmlns:dc="http://purl.org/dc/elements/1.1/" xmlns:inkscape="http://www.inkscape.org/namespaces/inkscape" xmlns:rdf="http://www.w3.org/1999/02/22-rdf-syntax-ns#" xmlns:sodipodi="http://sodipodi.sourceforge.net/DTD/sodipodi-0.dtd" xmlns:svg="http://www.w3.org/2000/svg"
	 xmlns="http://www.w3.org/2000/svg" xmlns:xlink="http://www.w3.org/1999/xlink" x="0px" y="0px" viewBox="0 0 100 100"
	 style="enable-background:new 0 0 100 100;" xml:space="preserve">
<g transform="translate(0,-952.36218)">
	<path d="M37,963.4c-8.8,0-16,7.2-16,16s7.2,16,16,16s16-7.2,16-16S45.8,963.4,37,963.4z M71,965.4c-7.1,0-13,5.9-13,13
		s5.9,13,13,13s13-5.9,13-13S78.1,965.4,71,965.4z M37,969.4c5.6,0,10,4.4,10,10s-4.4,10-10,10s-10-4.4-10-10S31.4,969.4,37,969.4z
		 M71,971.4c3.9,0,7,3.1,7,7s-3.1,7-7,7c-3.9,0-7-3.1-7-7S67.1,971.4,71,971.4z M71,993.4c-8.4,0-16,2.3-20.4,6.8
		c-4.1-1.2-8.7-1.8-13.6-1.8c-8.5,0-16.2,2-22,5.4s-10,8.5-10,14.6v20c0,1.6,1.4,3,3,3h58c1.6,0,3-1.4,3-3v-12c7.4,0,13.3,0,23,0
		c1.6,0,3-1.4,3-3v-15c0-4.8-3.3-8.8-7.7-11.2C83,994.7,77.3,993.4,71,993.4z M71,999.4c5.4,0,10.2,1.2,13.4,3
		c3.2,1.8,4.6,3.9,4.6,6v12H69c0.4-8.6-4.2-13.2-10-16.6c-0.6-0.4-1.3-0.7-1.9-1C60.3,1000.8,65.3,999.4,71,999.4L71,999.4z
		 M37,1004.4c7.6,0,14.3,1.8,19,4.6s7,6.1,7,9.4v17H11v-17c0-3.3,2.3-6.7,7-9.4S29.4,1004.4,37,1004.4L37,1004.4z"/>
</g>
</svg>
