<?xml version="1.0" encoding="utf-8"?>
<!-- Generator: Adobe Illustrator 21.0.1, SVG Export Plug-In . SVG Version: 6.00 Build 0)  -->
<svg version="1.1"
	 id="Layer_1" xmlns:cc="http://creativecommons.org/ns#" xmlns:dc="http://purl.org/dc/elements/1.1/" xmlns:inkscape="http://www.inkscape.org/namespaces/inkscape" xmlns:rdf="http://www.w3.org/1999/02/22-rdf-syntax-ns#" xmlns:sodipodi="http://sodipodi.sourceforge.net/DTD/sodipodi-0.dtd" xmlns:svg="http://www.w3.org/2000/svg"
	 xmlns="http://www.w3.org/2000/svg" xmlns:xlink="http://www.w3.org/1999/xlink" x="0px" y="0px" viewBox="0 0 100 100"
	 style="enable-background:new 0 0 100 100;" xml:space="preserve">
<g transform="translate(0,-952.36218)">
	<path d="M50,959.4c-9.9,0-18,8.1-18,18s8.1,18,18,18s18-8.1,18-18C68,967.5,59.9,959.4,50,959.4z M50,965.4c6.7,0,12,5.3,12,12
		s-5.3,12-12,12s-12-5.3-12-12S43.3,965.4,50,965.4z M50,997.4c-8.9,0-16.9,2.4-22.9,6.4s-10.1,9.9-10.1,16.6v22c0,1.6,1.4,3,3,3h60
		c1.6,0,3-1.4,3-3v-22c0-6.7-4.1-12.5-10.1-16.6C66.9,999.8,58.9,997.4,50,997.4z M50,1003.4c7.8,0,14.7,2.2,19.6,5.4
		c4.8,3.3,7.4,7.4,7.4,11.6v19H23v-19c0-4.2,2.6-8.3,7.4-11.6C35.3,1005.5,42.2,1003.4,50,1003.4L50,1003.4z"/>
</g>
<g>
	<path d="M51.4,57.2c2.1,0,3.7,0.5,4.7,1.6c1,1,1.5,2.4,1.5,4.1c0,0.6-0.1,1.2-0.2,1.7c-0.1,0.6-0.4,1.1-0.6,1.5
		c-0.3,0.5-0.7,0.8-1.1,1.2s-1,0.5-1.6,0.7V68c0.7,0.1,1.4,0.3,1.9,0.6c0.5,0.3,1,0.7,1.3,1.2c0.3,0.5,0.6,1,0.8,1.6
		c0.2,0.6,0.2,1.2,0.2,1.8c0,1-0.1,1.9-0.4,2.7s-0.7,1.5-1.2,2.1s-1.3,1.1-2.1,1.4c-0.9,0.3-1.9,0.5-3.2,0.5h-9V57.2H51.4z
		 M49.8,66.1c0.6,0,1.1-0.2,1.4-0.7c0.3-0.5,0.5-1,0.5-1.6c0-0.6-0.2-1.2-0.5-1.7c-0.3-0.5-0.8-0.7-1.4-0.7h-1.4v4.7H49.8z M50,75.7
		c0.6,0,1-0.2,1.5-0.7c0.4-0.5,0.6-1.2,0.6-2.1c0-0.9-0.2-1.6-0.6-2c-0.4-0.5-0.9-0.7-1.5-0.7h-1.7v5.6H50z"/>
</g>
</svg>
