<?xml version="1.0" encoding="utf-8"?>
<!-- Generator: Adobe Illustrator 21.0.1, SVG Export Plug-In . SVG Version: 6.00 Build 0)  -->
<svg version="1.1"
	 id="Layer_1" xmlns:cc="http://creativecommons.org/ns#" xmlns:dc="http://purl.org/dc/elements/1.1/" xmlns:inkscape="http://www.inkscape.org/namespaces/inkscape" xmlns:rdf="http://www.w3.org/1999/02/22-rdf-syntax-ns#" xmlns:sodipodi="http://sodipodi.sourceforge.net/DTD/sodipodi-0.dtd" xmlns:svg="http://www.w3.org/2000/svg"
	 xmlns="http://www.w3.org/2000/svg" xmlns:xlink="http://www.w3.org/1999/xlink" x="0px" y="0px" viewBox="0 0 100 100"
	 style="enable-background:new 0 0 100 100;" xml:space="preserve">
<g transform="translate(0,-952.36218)">
	<path d="M27,970.4c-6,0-11,5-11,11s5,11,11,11c4.4,0,8.3-2.7,10-6.5c0.3,6.9,6,12.5,13,12.5s12.7-5.6,13-12.5
		c1.7,3.8,5.6,6.5,10,6.5c6,0,11-5,11-11s-5-11-11-11c-5.8,0-10.5,4.5-11,10.2c-1.9-4.8-6.6-8.2-12-8.2s-10.1,3.4-12,8.2
		C37.5,974.9,32.8,970.4,27,970.4z M27,976.4c2.8,0,5,2.2,5,5c0,2.8-2.2,5-5,5s-5-2.2-5-5C22,978.6,24.2,976.4,27,976.4z M73,976.4
		c2.8,0,5,2.2,5,5c0,2.8-2.2,5-5,5c-2.8,0-5-2.2-5-5C68,978.6,70.2,976.4,73,976.4z M50,978.4c3.9,0,7,3.1,7,7c0,3.9-3.1,7-7,7
		c-3.9,0-7-3.1-7-7C43,981.5,46.1,978.4,50,978.4z M27,993.4c-5.7,0-10.9,1.3-14.9,3.6s-7.1,6-7.1,10.4v14c0,1.6,1.4,3,3,3h18v7
		c0,1.6,1.4,3,3,3h42c1.6,0,3-1.4,3-3v-7h18c1.6,0,3-1.4,3-3v-14c0-4.5-3-8.1-7.1-10.4s-9.2-3.6-14.9-3.6c-8.2,0-15.4,2.4-19.3,7.2
		c-1.2-0.1-2.4-0.2-3.7-0.2c-1.2,0-2.5,0.1-3.7,0.2C42.4,995.8,35.2,993.4,27,993.4z M27,999.4c4.6,0,8.7,1.2,11.6,2.7
		c-1.8,0.6-3.4,1.3-4.9,2.1c-4.4,2.5-7.7,6.4-7.7,11.2v3H11v-11c0-1.7,1.2-3.6,4.1-5.2S22.2,999.4,27,999.4z M73,999.4
		c4.8,0,9.1,1.1,11.9,2.8s4.1,3.5,4.1,5.2v11H74v-3c0-4.8-3.3-8.8-7.7-11.2c-1.5-0.8-3.1-1.5-4.9-2.1
		C64.3,1000.5,68.4,999.4,73,999.4z M50,1006.4c5.4,0,10.2,1.2,13.4,3c3.2,1.8,4.6,3.9,4.6,6v13H32v-13c0-2.1,1.4-4.2,4.6-6
		C39.8,1007.6,44.6,1006.4,50,1006.4z"/>
</g>
</svg>
